# xmcd CD database file generated by Grip 2.94
# 
# Track frame offsets:
#       150
#       12970
#       39325
#       60050
#       85487
#       103387
#       133950
#       154552
#       165232
#       191655
#       205097
#       231012
#       253452
#       269537
#       321810
# 
# Disc length: 4497 seconds
# 
# Revision: 3
# Processed by: cddbd v1.4b41PL1 Copyright (c) Steve Scherf et al.
# Submitted via: Grip 2.94
# 
DISCID=ca118f0f
DTITLE=Faraway Brothers - Start the Engine and Drive Away
DYEAR=1900
DGENRE=
TTITLE0=Number One
TTITLE1=Song For My Father
TTITLE2=Arms Like Cactus
TTITLE3=Night Train
TTITLE4=Sady Grove
TTITLE5=Red House
TTITLE6=Don't Loose Your Cool
TTITLE7=Jingly Jangly
TTITLE8=Jesus Gonna Be Here
TTITLE9=Fraulein
TTITLE10=Fairies Wear Boots
TTITLE11=Sweetleaf
TTITLE12=Push, Push, Push (2)
TTITLE13=So What! (2)
TTITLE14=Cielito Lindo
EXTD=
EXTT0=
EXTT1=
EXTT2=
EXTT3=
EXTT4=
EXTT5=
EXTT6=
EXTT7=
EXTT8=
EXTT9=
EXTT10=
EXTT11=
EXTT12=
EXTT13=
EXTT14=
PLAYORDER=
